# xmcd
#
# Track frame offsets: 
#        150
#        21226
#        35553
#        60231
#        77763
#        100244
#        124471
#        147501
#        171655
#        188838
#
# Disc length: 2674 seconds
#
# Revision: 0
# Processed by: cddbd v1.5.1PL2 Copyright (c) Steve Scherf et al.
# Submitted via: ExactAudioCopy v0.95a5
#
DISCID=8e0a700a
DTITLE=강산에 - 4집 연어
DYEAR=1998
DGENRE=Pop
TTITLE0=거꾸로 강을 거슬러 오르는 저 힘찬 연어들처럼
TTITLE1=미스탬버린
TTITLE2=코메디
TTITLE3=억지
TTITLE4=내마음의 구멍
TTITLE5='98 아리랑
TTITLE6=춤추는 나
TTITLE7=cat walk
TTITLE8=맛!
TTITLE9=나비의 입맞춤
EXTD=
EXTT0=
EXTT1=
EXTT2=
EXTT3=
EXTT4=
EXTT5=
EXTT6=
EXTT7=
EXTT8=
EXTT9=
PLAYORDER=
